# xmcd
#
# Track frame offsets:
#	150
#	17613
#	28641
#	43522
#	56298
#	69303
#	84821
#	99132
#	110815
#	128419
#	141998
#	156752
#
# Disc length: 2229 seconds
#
# Revision: 1
# Processed by: cddbd v1.5.2PL0 Copyright (c) Steve Scherf et al.
# Submitted via: audiograbber 1.83.01
#
DISCID=8908b30c
DTITLE=Lasse Stefanz - Darlin'
DYEAR=1978
DGENRE=DansBand
TTITLE0=Vid en liten fiskehamn
TTITLE1=Swanee river
TTITLE2=Soulful woman
TTITLE3=Här går du och jag
TTITLE4=Glömd melodi
TTITLE5=På min långa väg till dig
TTITLE6=Darlin'
TTITLE7=Heaven's just a sin away
TTITLE8=Tro mej
TTITLE9=Have you ever been lonely
TTITLE10=Man ska nog ha sin del
TTITLE11=Ett litet munspel
EXTD=Nr:5
EXTT0=
EXTT1=
EXTT2=
EXTT3=
EXTT4=
EXTT5=
EXTT6=
EXTT7=
EXTT8=
EXTT9=
EXTT10=
EXTT11=
PLAYORDER=
